<?xml version="1.0" standalone="no"?>
<!DOCTYPE svg PUBLIC "-//W3C//DTD SVG 20010904//EN"
 "http://www.w3.org/TR/2001/REC-SVG-20010904/DTD/svg10.dtd">
<svg version="1.0" xmlns="http://www.w3.org/2000/svg"
 width="600.000000pt" height="338.000000pt" viewBox="0 0 600.000000 338.000000"
 preserveAspectRatio="xMidYMid meet">
<g transform="translate(0.000000,338.000000) scale(0.100000,-0.100000)"
fill="#000000" stroke="none">
<path d="M2920 1725 l0 -225 120 0 c66 0 123 1 127 3 4 1 8 10 8 20 2 15 -9
17 -99 17 l-101 0 0 85 0 85 93 0 c89 0 92 1 92 23 0 21 -2 22 -92 19 l-93 -4
0 76 0 76 101 0 c98 0 101 1 99 23 -2 21 -5 22 -128 25 l-127 3 0 -226z"/>
<path d="M2850 1655 l0 -225 125 0 c123 0 125 0 125 23 0 22 -2 22 -100 19
l-100 -3 0 205 0 206 -25 0 -25 0 0 -225z"/>
</g>
</svg>
