<svg version="1.0" xmlns="http://www.w3.org/2000/svg" width="240.000000pt" height="240.000000pt" viewBox="0 0 240.000000 240.000000" preserveAspectRatio="xMidYMid meet" style="width: 292.6px; height: auto;"> <g transform="translate(0.000000,240.000000) scale(0.100000,-0.100000)" fill="#000000" stroke="none"> <path d="M905 1300 l0 -720 403 0 402 0 0 75 0 75 -320 0 -320 0 0 265 0 265 300 0 300 0 0 75 0 75 -300 0 -300 0 0 230 0 230 320 0 320 0 0 75 0 75 -402 0 -403 0 0 -720z m765 640 l0 -40 -277 -1 c-153 -1 -287 -2 -298 -3 -11 0 -25 5 -30 12 -15 19 -16 -2 -20 -279 l-4 -236 25 -12 c16 -7 113 -10 299 -8 226 2 274 0 270 -11 -3 -8 -5 -28 -5 -45 l0 -32 -276 3 -275 3 -19 -23 c-18 -21 -19 -41 -19 -278 1 -215 4 -258 17 -272 14 -16 42 -18 314 -18 l298 0 1 -27 c0 -16 2 -36 4 -45 3 -16 -23 -18 -366 -20 -312 -3 -369 -1 -371 11 -2 8 -2 319 0 690 l2 676 365 -3 365 -2 0 -40z" class=""></path> <path d="M665 1080 l0 -720 403 0 402 0 0 75 0 75 -320 0 -320 0 0 645 0 645 -82 0 -83 0 0 -720z m136 74 c1 -332 3 -613 4 -624 1 -11 3 -24 4 -30 0 -5 4 -9 9 -9 4 1 12 0 17 -1 27 -6 59 -7 318 -8 l277 -2 0 -45 0 -45 -365 -2 -365 -3 0 690 0 690 50 -3 50 -4 1 -604z" class=""></path> </g> </svg>